<svg xmlns="http://www.w3.org/2000/svg" xmlns:xlink="http://www.w3.org/1999/xlink" width="500" zoomAndPan="magnify" viewBox="0 0 375 374.999991" height="500" preserveAspectRatio="xMidYMid meet" version="1.0"><path fill="#00a99d" d="M 39.273438 99.027344 C 39.300781 99.027344 39.347656 99.050781 39.375 99.050781 C 62.742188 103.707031 79.816406 113.09375 90.152344 126.941406 C 101.425781 142.074219 103.832031 161.195312 97.3125 183.835938 C 96.917969 185.195312 96.496094 186.558594 96.050781 187.945312 C 91.835938 200.777344 92.605469 210.757812 98.453125 218.4375 C 115.179688 240.429688 169.328125 243.03125 187 242.214844 C 187.195312 242.214844 187.371094 242.214844 187.570312 242.214844 C 187.792969 242.214844 187.992188 242.191406 188.214844 242.214844 C 207.171875 243.082031 260.03125 240.457031 276.757812 218.4375 C 282.609375 210.734375 283.375 200.777344 279.164062 187.945312 C 278.714844 186.558594 278.296875 185.195312 277.898438 183.835938 C 271.382812 161.195312 273.785156 142.074219 285.0625 126.941406 C 295.394531 113.09375 312.46875 103.707031 335.839844 99.050781 C 335.863281 99.050781 335.914062 99.027344 335.9375 99.027344 C 340.695312 98.085938 343.199219 92.785156 340.769531 88.597656 C 310.265625 35.640625 253.09375 0 187.59375 0 C 122.09375 0 64.921875 35.640625 34.441406 88.574219 C 32.011719 92.785156 34.515625 98.058594 39.273438 99.027344 Z M 39.273438 99.027344 " fill-opacity="1" fill-rule="nonzero"/><path fill="#00a99d" d="M 364.191406 176.503906 C 364.191406 170.878906 363.917969 165.308594 363.394531 159.785156 C 360.84375 132.808594 328.007812 120.105469 308.828125 139.273438 C 307.785156 140.316406 306.820312 141.40625 305.976562 142.570312 C 299.335938 151.484375 298.691406 163.648438 303.996094 179.746094 C 312.742188 206.300781 305.332031 224.035156 297.550781 234.238281 C 285.183594 250.511719 262.460938 261.164062 229.996094 265.894531 C 215.152344 268.046875 201.742188 268.445312 193.960938 268.445312 C 190.816406 268.445312 188.585938 268.371094 187.570312 268.34375 C 186.554688 268.394531 184.324219 268.445312 181.175781 268.445312 C 173.394531 268.445312 159.988281 268.046875 145.140625 265.894531 C 112.679688 261.164062 89.953125 250.511719 77.585938 234.238281 C 69.832031 224.035156 62.421875 206.300781 71.144531 179.746094 C 76.445312 163.648438 75.800781 151.460938 69.136719 142.519531 C 68.269531 141.355469 67.300781 140.242188 66.261719 139.199219 C 47.105469 120.078125 14.292969 132.734375 11.742188 159.660156 C 11.171875 165.726562 10.898438 171.871094 10.949219 178.113281 C 11.839844 274.613281 91.019531 353.003906 187.59375 352.980469 C 285.160156 353.003906 364.191406 273.992188 364.191406 176.503906 Z M 364.191406 176.503906 " fill-opacity="1" fill-rule="nonzero"/><path fill="#00a99d" d="M 103.265625 344.554688 C 103.386719 345.308594 103.472656 346.0625 103.519531 346.824219 C 103.566406 347.585938 103.578125 348.34375 103.550781 349.105469 C 103.523438 349.867188 103.457031 350.625 103.355469 351.378906 C 103.253906 352.136719 103.117188 352.882812 102.941406 353.625 C 102.765625 354.367188 102.554688 355.097656 102.308594 355.816406 C 102.0625 356.539062 101.78125 357.246094 101.460938 357.9375 C 101.144531 358.632812 100.796875 359.308594 100.414062 359.964844 C 100.03125 360.625 99.617188 361.261719 99.171875 361.878906 C 98.726562 362.5 98.25 363.09375 97.746094 363.664062 C 97.242188 364.234375 96.710938 364.78125 96.152344 365.300781 C 95.59375 365.820312 95.015625 366.308594 94.40625 366.769531 C 93.800781 367.234375 93.175781 367.664062 92.527344 368.066406 C 91.878906 368.464844 91.210938 368.832031 90.527344 369.167969 C 89.84375 369.503906 89.144531 369.804688 88.429688 370.070312 C 87.714844 370.335938 86.988281 370.566406 86.253906 370.761719 C 85.515625 370.957031 84.773438 371.117188 84.019531 371.238281 C 83.265625 371.359375 82.511719 371.445312 81.75 371.492188 C 80.988281 371.539062 80.230469 371.550781 79.46875 371.523438 C 78.707031 371.496094 77.945312 371.429688 77.191406 371.328125 C 76.4375 371.226562 75.6875 371.089844 74.945312 370.914062 C 74.203125 370.738281 73.472656 370.527344 72.75 370.28125 C 72.03125 370.035156 71.324219 369.753906 70.628906 369.4375 C 69.9375 369.121094 69.261719 368.769531 68.601562 368.386719 C 67.941406 368.003906 67.304688 367.589844 66.6875 367.144531 C 66.066406 366.699219 65.472656 366.226562 64.902344 365.722656 C 64.328125 365.21875 63.785156 364.6875 63.265625 364.128906 C 62.746094 363.574219 62.253906 362.992188 61.792969 362.386719 C 61.332031 361.78125 60.898438 361.152344 60.5 360.503906 C 60.097656 359.855469 59.730469 359.191406 59.394531 358.507812 C 59.058594 357.824219 58.757812 357.125 58.492188 356.410156 C 58.226562 355.695312 57.996094 354.972656 57.800781 354.234375 C 57.605469 353.5 57.445312 352.753906 57.324219 352.003906 C 57.203125 351.25 57.117188 350.496094 57.070312 349.734375 C 57.023438 348.976562 57.011719 348.214844 57.039062 347.453125 C 57.066406 346.691406 57.128906 345.933594 57.230469 345.179688 C 57.332031 344.421875 57.472656 343.675781 57.648438 342.933594 C 57.820312 342.191406 58.03125 341.460938 58.28125 340.742188 C 58.527344 340.019531 58.808594 339.3125 59.125 338.621094 C 59.441406 337.929688 59.792969 337.253906 60.175781 336.59375 C 60.558594 335.933594 60.972656 335.296875 61.417969 334.679688 C 61.863281 334.0625 62.339844 333.464844 62.84375 332.894531 C 63.347656 332.324219 63.878906 331.777344 64.433594 331.257812 C 64.992188 330.742188 65.574219 330.25 66.179688 329.789062 C 66.785156 329.324219 67.414062 328.894531 68.0625 328.496094 C 68.710938 328.09375 69.375 327.726562 70.0625 327.390625 C 70.746094 327.054688 71.445312 326.753906 72.160156 326.488281 C 72.871094 326.222656 73.597656 325.992188 74.335938 325.796875 C 75.070312 325.601562 75.816406 325.445312 76.570312 325.320312 C 77.320312 325.199219 78.078125 325.113281 78.835938 325.066406 C 79.597656 325.019531 80.359375 325.007812 81.121094 325.035156 C 81.882812 325.0625 82.640625 325.128906 83.398438 325.230469 C 84.152344 325.332031 84.902344 325.46875 85.640625 325.644531 C 86.382812 325.820312 87.117188 326.03125 87.835938 326.277344 C 88.558594 326.523438 89.265625 326.804688 89.957031 327.121094 C 90.652344 327.4375 91.328125 327.789062 91.984375 328.171875 C 92.644531 328.554688 93.285156 328.96875 93.902344 329.414062 C 94.519531 329.859375 95.113281 330.332031 95.6875 330.835938 C 96.257812 331.339844 96.804688 331.871094 97.324219 332.429688 C 97.84375 332.984375 98.332031 333.566406 98.796875 334.171875 C 99.257812 334.777344 99.6875 335.40625 100.089844 336.054688 C 100.492188 336.703125 100.859375 337.367188 101.195312 338.050781 C 101.527344 338.734375 101.828125 339.433594 102.097656 340.148438 C 102.363281 340.863281 102.59375 341.585938 102.789062 342.324219 C 102.984375 343.058594 103.140625 343.804688 103.265625 344.554688 Z M 103.265625 344.554688 " fill-opacity="1" fill-rule="nonzero"/><path fill="#00a99d" d="M 317.878906 344.546875 C 318 345.300781 318.085938 346.054688 318.132812 346.816406 C 318.179688 347.578125 318.191406 348.335938 318.164062 349.097656 C 318.136719 349.859375 318.070312 350.617188 317.96875 351.371094 C 317.867188 352.128906 317.730469 352.875 317.554688 353.617188 C 317.378906 354.359375 317.167969 355.089844 316.921875 355.808594 C 316.675781 356.53125 316.394531 357.238281 316.078125 357.929688 C 315.761719 358.625 315.410156 359.300781 315.027344 359.957031 C 314.644531 360.617188 314.230469 361.253906 313.785156 361.871094 C 313.339844 362.492188 312.863281 363.085938 312.359375 363.65625 C 311.855469 364.226562 311.324219 364.773438 310.765625 365.292969 C 310.210938 365.8125 309.628906 366.300781 309.023438 366.761719 C 308.414062 367.226562 307.789062 367.65625 307.140625 368.058594 C 306.492188 368.457031 305.824219 368.824219 305.140625 369.160156 C 304.457031 369.496094 303.757812 369.796875 303.042969 370.0625 C 302.328125 370.328125 301.605469 370.558594 300.867188 370.753906 C 300.128906 370.949219 299.386719 371.109375 298.632812 371.230469 C 297.882812 371.351562 297.125 371.4375 296.363281 371.484375 C 295.605469 371.53125 294.84375 371.542969 294.082031 371.515625 C 293.320312 371.488281 292.5625 371.421875 291.804688 371.320312 C 291.050781 371.21875 290.300781 371.082031 289.558594 370.90625 C 288.816406 370.730469 288.085938 370.519531 287.367188 370.273438 C 286.644531 370.027344 285.9375 369.746094 285.246094 369.429688 C 284.550781 369.113281 283.875 368.761719 283.214844 368.378906 C 282.558594 367.996094 281.917969 367.582031 281.300781 367.136719 C 280.683594 366.691406 280.085938 366.21875 279.515625 365.714844 C 278.945312 365.210938 278.398438 364.679688 277.878906 364.121094 C 277.359375 363.566406 276.867188 362.984375 276.40625 362.378906 C 275.945312 361.773438 275.511719 361.144531 275.113281 360.496094 C 274.710938 359.847656 274.34375 359.183594 274.007812 358.5 C 273.671875 357.816406 273.371094 357.117188 273.105469 356.402344 C 272.839844 355.6875 272.609375 354.964844 272.414062 354.226562 C 272.21875 353.492188 272.058594 352.746094 271.9375 351.996094 C 271.816406 351.242188 271.730469 350.488281 271.683594 349.726562 C 271.636719 348.96875 271.625 348.207031 271.652344 347.445312 C 271.679688 346.683594 271.742188 345.925781 271.84375 345.171875 C 271.945312 344.414062 272.085938 343.667969 272.261719 342.925781 C 272.4375 342.183594 272.648438 341.453125 272.894531 340.734375 C 273.140625 340.011719 273.421875 339.304688 273.738281 338.613281 C 274.054688 337.921875 274.40625 337.246094 274.789062 336.585938 C 275.171875 335.925781 275.585938 335.289062 276.03125 334.671875 C 276.476562 334.054688 276.953125 333.457031 277.457031 332.886719 C 277.960938 332.316406 278.492188 331.769531 279.046875 331.25 C 279.605469 330.734375 280.1875 330.242188 280.792969 329.78125 C 281.398438 329.316406 282.027344 328.886719 282.675781 328.488281 C 283.324219 328.085938 283.992188 327.71875 284.675781 327.382812 C 285.359375 327.046875 286.058594 326.746094 286.773438 326.480469 C 287.488281 326.214844 288.210938 325.984375 288.949219 325.789062 C 289.683594 325.59375 290.429688 325.4375 291.183594 325.3125 C 291.933594 325.191406 292.691406 325.105469 293.453125 325.058594 C 294.210938 325.011719 294.972656 325 295.734375 325.027344 C 296.496094 325.054688 297.253906 325.121094 298.011719 325.222656 C 298.765625 325.324219 299.515625 325.460938 300.257812 325.636719 C 300.996094 325.8125 301.730469 326.023438 302.449219 326.269531 C 303.171875 326.515625 303.878906 326.796875 304.570312 327.113281 C 305.265625 327.429688 305.941406 327.78125 306.601562 328.164062 C 307.257812 328.546875 307.898438 328.960938 308.515625 329.40625 C 309.132812 329.851562 309.730469 330.324219 310.300781 330.828125 C 310.871094 331.332031 311.417969 331.863281 311.9375 332.421875 C 312.457031 332.976562 312.945312 333.558594 313.410156 334.164062 C 313.871094 334.769531 314.304688 335.398438 314.703125 336.046875 C 315.105469 336.695312 315.472656 337.359375 315.808594 338.042969 C 316.140625 338.726562 316.441406 339.425781 316.710938 340.140625 C 316.976562 340.855469 317.207031 341.578125 317.402344 342.316406 C 317.597656 343.050781 317.757812 343.796875 317.878906 344.546875 Z M 317.878906 344.546875 " fill-opacity="1" fill-rule="nonzero"/></svg>